<?xml version="1.0" encoding="UTF-8"?>
<svg version="1.1" xmlns="http://www.w3.org/2000/svg" width="77" height="77">
<path d="M0 0 C1.48573827 0.8934339 2.94820921 1.8276597 4.375 2.8125 C4.95636719 3.18503906 5.53773437 3.55757813 6.13671875 3.94140625 C10.68395089 7.22870001 13.03354733 11.85812188 15.375 16.8125 C15.74367187 17.55242188 16.11234375 18.29234375 16.4921875 19.0546875 C19.32047778 27.889966 18.44129065 39.88805189 14.76171875 48.29296875 C8.63656285 59.42177314 1.07796795 67.40215987 -10.875 71.98828125 C-12.81797446 72.68293316 -12.81797446 72.68293316 -13.625 74.8125 C-15.275 74.8125 -16.925 74.8125 -18.625 74.8125 C-18.625 74.1525 -18.625 73.4925 -18.625 72.8125 C-19.38683594 72.49539062 -20.14867188 72.17828125 -20.93359375 71.8515625 C-32.53452912 66.60869283 -40.0247494 58.7288118 -44.625 46.8125 C-47.87437499 37.07585692 -48.44615295 25.43976897 -43.9609375 15.9921875 C-34.72878071 0.92919485 -17.06766279 -8.15942729 0 0 Z " fill="#F75970" transform="translate(52.625,2.1875)"/>
<path d="M0 0 C9.323341 -0.6045394 16.12631136 -0.25397707 24 5 C24.58394531 5.37253906 25.16789062 5.74507813 25.76953125 6.12890625 C30.30796348 9.42645068 32.65836233 14.04523044 35 19 C35.36996094 19.73734375 35.73992187 20.4746875 36.12109375 21.234375 C37.34867436 25.09716198 37.3391297 28.71976065 37.3125 32.75 C37.31121094 33.54970215 37.30992188 34.3494043 37.30859375 35.17333984 C37.21404563 40.9750486 36.37567698 45.65472681 34 51 C33.67 51 33.34 51 33 51 C32.94392578 49.25976562 32.94392578 49.25976562 32.88671875 47.484375 C32.6353998 33.90743522 32.6353998 33.90743522 29 21 C27.05924313 19.79777896 27.05924313 19.79777896 25 19 C23.62517293 17.36739286 22.29352333 15.69774938 21 14 C20.2575 13.278125 19.515 12.55625 18.75 11.8125 C17 10 17 10 17 8 C16.34 8 15.68 8 15 8 C15 7.34 15 6.68 15 6 C14.01 6 13.02 6 12 6 C12 5.34 12 4.68 12 4 C11.319375 3.87625 10.63875 3.7525 9.9375 3.625 C6.5722588 2.90899123 3.29986575 1.97054875 0 1 C0 0.67 0 0.34 0 0 Z " fill="#FBB9B7" transform="translate(33,0)"/>
<path d="M0 0 C0 0.66 0 1.32 0 2 C0.99 2 1.98 2 3 2 C3 2.66 3 3.32 3 4 C3.66 4 4.32 4 5 4 C5.2475 4.78375 5.495 5.5675 5.75 6.375 C7.20924503 9.43941457 8.05014956 9.61725761 11 11 C11.4640625 11.99 11.4640625 11.99 11.9375 13 C12.84428863 15.26101529 12.84428863 15.26101529 15.453125 15.8203125 C18 17 18 17 19.14453125 19.1171875 C21.51542267 28.90578017 24.41170139 43.3701239 19.27734375 52.6953125 C14.59747706 59.20126147 14.59747706 59.20126147 11 61 C11.20496094 60.32453125 11.40992187 59.6490625 11.62109375 58.953125 C12.02521484 57.61507812 12.02521484 57.61507812 12.4375 56.25 C12.70433594 55.36828125 12.97117187 54.4865625 13.24609375 53.578125 C14.7462955 48.44790141 15.15227225 43.85445133 15.125 38.5 C15.12886719 37.74074219 15.13273437 36.98148438 15.13671875 36.19921875 C15.13044787 32.61854886 14.91031208 29.44838182 14 26 C13.87794671 23.32459184 13.95532687 20.68038762 14 18 C12.35 17.67 10.7 17.34 9 17 C8.9175 16.38125 8.835 15.7625 8.75 15.125 C8.20605562 12.82027141 8.20605562 12.82027141 6 11.9375 C5.34 11.628125 4.68 11.31875 4 11 C3.67 10.01 3.34 9.02 3 8 C0.98491642 7.26676204 0.98491642 7.26676204 -1 7 C-1.33 5.68 -1.66 4.36 -2 3 C-2.80824219 2.86722656 -3.61648437 2.73445312 -4.44921875 2.59765625 C-6.05216797 2.33275391 -6.05216797 2.33275391 -7.6875 2.0625 C-8.74324219 1.88847656 -9.79898438 1.71445313 -10.88671875 1.53515625 C-13.60249604 1.06832879 -16.30124235 0.55577384 -19 0 C-19 -0.66 -19 -1.32 -19 -2 C-12.86980098 -5.5594704 -6.03376755 -2.72492728 0 0 Z " fill="#F7989A" transform="translate(45,4)"/>
<path d="M0 0 C-0.25662245 1.44010481 -0.53090821 2.8770687 -0.8125 4.3125 C-0.96332031 5.11300781 -1.11414062 5.91351563 -1.26953125 6.73828125 C-2.08905362 9.27573287 -2.90874747 10.37347026 -5 12 C-7.84496772 12.42674516 -9.36352369 12.36066991 -11.875 10.9375 C-13.64782183 7.88430685 -12.69235306 5.33588292 -12 2 C-10.75579353 1.4654744 -9.50429064 0.94791389 -8.25 0.4375 C-7.55390625 0.14746094 -6.8578125 -0.14257812 -6.140625 -0.44140625 C-3.69987216 -1.07831803 -2.3596345 -0.80248831 0 0 Z " fill="#E3244F" transform="translate(30,34)"/>
<path d="M0 0 C3.82118677 0.54588382 7.36378667 1.73155349 11 3 C12.33078101 9.41194487 12.33078101 9.41194487 10.875 12 C9 13 9 13 6.4375 12.8125 C4 12 4 12 2 10 C0.69097586 7.07394604 -0.43516783 4.16306015 -1 1 C-0.67 0.67 -0.34 0.34 0 0 Z " fill="#E23C58" transform="translate(45,33)"/>
<path d="M0 0 C6.76016854 1.56003889 12.61527465 5.63027939 16.6171875 11.28515625 C17.85932347 13.48645638 18.96007695 15.69731324 20 18 C20.433125 18.845625 20.86625 19.69125 21.3125 20.5625 C22.31091832 24.10234676 22.12445124 27.32868855 22 31 C21.34 29.68 20.68 28.36 20 27 C19.01 27 18.02 27 17 27 C17 23.37 17 19.74 17 16 C15.68 15.67 14.36 15.34 13 15 C11.59886384 13.04690112 10.26660533 11.04291182 9 9 C8.4225 8.4225 7.845 7.845 7.25 7.25 C6.8375 6.8375 6.425 6.425 6 6 C6 5.34 6 4.68 6 4 C5.195625 3.71125 4.39125 3.4225 3.5625 3.125 C1 2 1 2 0 0 Z " fill="#FED8D2" transform="translate(48,1)"/>
<path d="M0 0 C5.16127453 -0.17797498 9.1862173 -0.12702026 14 2 C15.0194119 2.98020375 16.01717417 3.98311585 17 5 C18.30812098 6.10935106 19.62089898 7.21322659 20.9375 8.3125 C24.36312365 11.29020601 26.78961311 14.03972348 29 18 C29 18.66 29 19.32 29 20 C25.92748873 19.67080236 25.0664519 19.07683501 23 16.6875 C22.34 15.800625 21.68 14.91375 21 14 C20.2575 13.278125 19.515 12.55625 18.75 11.8125 C17 10 17 10 17 8 C16.34 8 15.68 8 15 8 C15 7.34 15 6.68 15 6 C14.01 6 13.02 6 12 6 C12 5.34 12 4.68 12 4 C11.319375 3.87625 10.63875 3.7525 9.9375 3.625 C6.5722588 2.90899123 3.29986575 1.97054875 0 1 C0 0.67 0 0.34 0 0 Z " fill="#FAAEAE" transform="translate(33,0)"/>
<path d="M0 0 C3.80292224 7.33420718 4.42430739 13.16235221 4.5 21.375 C4.54125 22.48617187 4.5825 23.59734375 4.625 24.7421875 C4.6774083 30.24505871 4.64483372 33.99236936 0.96875 38.2890625 C0.0068195 39.22209019 -0.9737542 40.13821666 -2 41 C-2.33 40.34 -2.66 39.68 -3 39 C-2.40350233 37.29443632 -1.74583163 35.61016698 -1.0625 33.9375 C2.71947895 23.10017412 1.42449146 11.21787021 0 0 Z " fill="#F58086" transform="translate(59,24)"/>
<path d="M0 0 C4.72331163 -0.57601361 7.42893591 0.37727611 11.1875 3.296875 C14.57311848 6.47818891 17.47930585 10.10020267 20 14 C20 14.66 20 15.32 20 16 C21.32 16.33 22.64 16.66 24 17 C24 19.31 24 21.62 24 24 C21.54634023 21.77901487 20.20156352 19.64684957 18.75 16.6875 C16.57880683 12.64685048 14.22993402 10.0811852 10.62890625 7.28125 C9 6 9 6 6.875 3.6875 C4.62428952 1.66186057 2.97078138 1.33008682 0 1 C0 0.67 0 0.34 0 0 Z " fill="#FCC6C2" transform="translate(41,0)"/>
<path d="M0 0 C3.3 0 6.6 0 10 0 C9 4 9 4 7 6 C3.70285207 5.67028521 2.3773161 5.3773161 0 3 C0 2.01 0 1.02 0 0 Z " fill="#482A2F" transform="translate(32,39)"/>
<path d="M0 0 C0.99 0 1.98 0 3 0 C3 0.66 3 1.32 3 2 C4.32 2.33 5.64 2.66 7 3 C7 3.66 7 4.32 7 5 C7.61875 5.20625 8.2375 5.4125 8.875 5.625 C11.84653645 7.54775888 12.13024659 9.66594527 13 13 C12.34 13 11.68 13 11 13 C10.9175 12.38125 10.835 11.7625 10.75 11.125 C10.20605562 8.82027141 10.20605562 8.82027141 8 7.9375 C7.34 7.628125 6.68 7.31875 6 7 C5.67 6.01 5.34 5.02 5 4 C4.34 3.835 3.68 3.67 3 3.5 C2.34 3.335 1.68 3.17 1 3 C0.67 2.01 0.34 1.02 0 0 Z " fill="#F57F85" transform="translate(43,8)"/>
<path d="M0 0 C1.65 0.33 3.3 0.66 5 1 C4.67 2.32 4.34 3.64 4 5 C2.35 4.67 0.7 4.34 -1 4 C-0.67 2.68 -0.34 1.36 0 0 Z " fill="#3B282B" transform="translate(45,33)"/>
<path d="M0 0 C4.13447496 1.81916898 5.80772735 4.02143111 8 8 C7.67 8.99 7.34 9.98 7 11 C7 10.34 7 9.68 7 9 C6.01 8.67 5.02 8.34 4 8 C2.83203125 6.15234375 2.83203125 6.15234375 1.8125 3.9375 C1.46832031 3.20402344 1.12414063 2.47054688 0.76953125 1.71484375 C0.51558594 1.14894531 0.26164062 0.58304688 0 0 Z " fill="#F79295" transform="translate(52,13)"/>
<path d="M0 0 C1.32 0.33 2.64 0.66 4 1 C3.67 2.32 3.34 3.64 3 5 C1.35 4.67 -0.3 4.34 -2 4 C-1.34 2.68 -0.68 1.36 0 0 Z " fill="#322326" transform="translate(26,33)"/>
<path d="M0 0 C1.73620367 0.72068832 3.47067912 1.44747119 5.1796875 2.23046875 C7.41046435 3.17352248 9.61080078 3.63800012 12 4 C12 4.33 12 4.66 12 5 C2.58997722 4.03644647 2.58997722 4.03644647 -2 3 C-2 2.34 -2 1.68 -2 1 C-1.34 0.67 -0.68 0.34 0 0 Z " fill="#F57C82" transform="translate(28,1)"/>
</svg>
