<?xml version="1.0" encoding="UTF-8"?>
<svg version="1.1" xmlns="http://www.w3.org/2000/svg" width="16" height="16">
<path d="M0 0 C1.27875 0.00257813 2.5575 0.00515625 3.875 0.0078125 C5.15375 0.00523437 6.4325 0.00265625 7.75 0 C10.875 0.1328125 10.875 0.1328125 11.875 1.1328125 C11.875 2.7828125 11.875 4.4328125 11.875 6.1328125 C6.595 6.1328125 1.315 6.1328125 -4.125 6.1328125 C-4.125 0.1753125 -4.125 0.1753125 0 0 Z " fill="#DBDBD9" transform="translate(4.125,4.8671875)"/>
<path d="M0 0 C0 0.99 0 1.98 0 3 C-4.62 3 -9.24 3 -14 3 C-13.67 2.01 -13.34 1.02 -13 0 C-8.55176251 -1.48274583 -4.47568357 -1.37713341 0 0 Z " fill="#6C6259" transform="translate(15,7)"/>
<path d="M0 0 C0 0.99 0 1.98 0 3 C-5.75 2.25 -5.75 2.25 -8 0 C-5.13822943 -1.43088528 -3.06624227 -0.59991697 0 0 Z " fill="#60544A" transform="translate(15,7)"/>
</svg>
