<?xml version="1.0" encoding="UTF-8"?>
<svg version="1.1" xmlns="http://www.w3.org/2000/svg" width="16" height="16">
<path d="M0 0 C5.28 0 10.56 0 16 0 C16 3.63 16 7.26 16 11 C10.72 11 5.44 11 0 11 C0 7.37 0 3.74 0 0 Z " fill="#405983" transform="translate(0,3)"/>
<path d="M0 0 C0.33 0 0.66 0 1 0 C1 1.98 1 3.96 1 6 C1.99 5.835 2.98 5.67 4 5.5 C8.02732942 4.91525483 11.93474623 4.92867976 16 5 C16 6.32 16 7.64 16 9 C10.72 9 5.44 9 0 9 C0 6.03 0 3.06 0 0 Z " fill="#293953" transform="translate(0,5)"/>
<path d="M0 0 C6 0 6 0 9 1 C9 1.66 9 2.32 9 3 C5.36576791 5.32590854 2.22911669 5.16265833 -2 5 C-2.33 3.68 -2.66 2.36 -3 1 C-2.01 1.33 -1.02 1.66 0 2 C0 1.34 0 0.68 0 0 Z " fill="#AEB6C3" transform="translate(6,6)"/>
<path d="M0 0 C5.28 0 10.56 0 16 0 C16 0.33 16 0.66 16 1 C11.71 1 7.42 1 3 1 C3.33 1.99 3.66 2.98 4 4 C3.5625 6.1875 3.5625 6.1875 3 8 C2.34 8 1.68 8 1 8 C0.67 5.36 0.34 2.72 0 0 Z " fill="#6F7A8C" transform="translate(0,3)"/>
</svg>
