<?xml version="1.0" encoding="UTF-8"?>
<svg version="1.1" xmlns="http://www.w3.org/2000/svg" width="512" height="512">
<path d="M0 0 C1.25896821 -0.00445784 2.51793643 -0.00891569 3.81505519 -0.01350862 C5.20450899 -0.01341933 6.59396278 -0.01322951 7.98341656 -0.01294994 C9.46553302 -0.01625143 10.94764859 -0.0199776 12.42976302 -0.02409142 C16.49935601 -0.03408745 20.56893424 -0.03782436 24.63853776 -0.04048073 C29.02939787 -0.04439101 33.42024637 -0.05396895 37.81109905 -0.0626936 C48.41462989 -0.08243933 59.01816165 -0.09252258 69.62170628 -0.10142139 C74.61991868 -0.10580806 79.61813002 -0.11117395 84.61634159 -0.11641026 C101.24055066 -0.13342192 117.86475909 -0.14791435 134.48897552 -0.155159 C138.8013061 -0.15706877 143.11363666 -0.15898912 147.42596722 -0.16094494 C148.49772686 -0.16142868 149.56948651 -0.16191242 150.67372372 -0.16241082 C168.02128101 -0.1707046 185.36876921 -0.19603079 202.71629635 -0.22852562 C220.54251539 -0.26164372 238.36869938 -0.27961212 256.19494933 -0.28280324 C266.19720348 -0.28496412 276.19935691 -0.29365063 286.201581 -0.31926441 C294.72314716 -0.34103653 303.24458813 -0.34898999 311.76617894 -0.33929763 C316.10857098 -0.33477151 320.45070507 -0.33653994 324.79306126 -0.35605907 C328.78028521 -0.3738258 332.76706565 -0.37258526 336.75429519 -0.35716178 C338.18510072 -0.35480597 339.61593808 -0.359002 341.04669533 -0.37099043 C354.3803327 -0.47565583 368.34494338 1.44352706 380.17132854 8.00922108 C380.83165081 8.35944324 381.49197308 8.70966541 382.17230511 9.07050037 C384.02143819 10.06585475 385.84917503 11.09047876 387.67132854 12.13422108 C388.52210979 12.61761951 389.37289104 13.10101795 390.24945354 13.59906483 C410.1563169 25.95134515 423.2623951 46.60306076 428.67132854 69.13422108 C430.44393635 78.70619295 430.96052252 88.0706432 430.93202496 97.7874651 C430.93505388 99.20906486 430.93894704 100.63066299 430.94361752 102.05225831 C430.95381114 105.91751741 430.951738 109.78268286 430.94743693 113.64794934 C430.9449538 117.83284646 430.9540035 122.01772195 430.96147442 126.20261097 C430.97418027 134.38598145 430.97602021 142.56931905 430.97367416 150.75269773 C430.97188598 157.41028983 430.97365131 164.067872 430.9778986 170.72546291 C430.97849379 171.67557995 430.97908898 172.62569698 430.9797022 173.60460544 C430.98091405 175.53524007 430.98212818 177.4658747 430.98334458 179.39650933 C430.99420457 197.47568967 430.99206511 215.55485132 430.98595973 233.6340327 C430.98079369 250.13907233 430.99204052 266.64405289 431.01105795 283.14908084 C431.03047528 300.13257775 431.03868542 317.11604676 431.0349347 334.09955484 C431.03302833 343.61994643 431.03545477 353.14028779 431.04964924 362.66067028 C431.06161388 370.76695938 431.06291142 378.87316732 431.05085907 386.97945764 C431.04500544 391.10742967 431.04377227 395.23525363 431.05586147 399.36321545 C431.14284141 431.29032413 429.06643882 459.16125638 406.67132854 484.13422108 C406.11960979 484.76843983 405.56789104 485.40265858 404.99945354 486.05609608 C389.85869293 502.39612486 367.44908212 510.6160526 345.67132854 512.13422108 C340.963221 512.27306672 336.25802136 512.27356508 331.54811382 512.26793385 C330.13536652 512.26980512 328.72261974 512.27210708 327.30987376 512.27479917 C323.45068067 512.28088448 319.59150935 512.28078745 315.73231256 512.27960479 C311.5610616 512.27939995 307.38981749 512.28492746 303.21856976 512.28966236 C295.05471641 512.29795159 286.89087029 512.30071642 278.72701309 512.30127474 C272.08740955 512.30175073 265.44780839 512.30380964 258.8082056 512.30697536 C239.96249859 512.31577733 221.11679725 512.32039547 202.27108816 512.31964489 C201.25614356 512.31960493 200.24119896 512.31956498 199.19549847 512.31952381 C198.17930727 512.31948293 197.16311608 512.31944205 196.11613121 512.31939993 C179.65341445 512.31899362 163.19072059 512.32856058 146.72801045 512.34266218 C129.80342409 512.35704442 112.87884887 512.36393134 95.95425624 512.3630684 C86.46077042 512.36273706 76.96730861 512.36545637 67.47382832 512.37624645 C59.39003451 512.38537581 51.30627558 512.38750677 43.22247884 512.38073703 C39.10315963 512.37748405 34.98390722 512.37737066 30.86459446 512.38609028 C27.08375387 512.39401067 23.30303246 512.39246803 19.52219459 512.38380615 C17.52756129 512.38156925 15.53292413 512.38905607 13.53830558 512.39704579 C-15.00199989 512.28933084 -38.19788306 503.80405722 -58.63335896 483.88812733 C-74.81792036 466.72745425 -81.82316931 445.0790943 -81.71635151 421.93565845 C-81.72053377 420.44266003 -81.72601615 418.9496648 -81.73267132 417.45667535 C-81.74702783 413.38950252 -81.74291216 409.32253402 -81.73550451 405.25535047 C-81.73075065 400.85507654 -81.74330224 396.45484541 -81.75352192 392.05458546 C-81.77067234 383.44761985 -81.7715577 374.84072737 -81.76630902 366.23374911 C-81.76225885 359.2338075 -81.76372092 352.2338874 -81.76905727 345.2339468 C-81.7698057 344.23564697 -81.77055412 343.23734713 -81.77132522 342.20879579 C-81.77285678 340.18039343 -81.77439513 338.15199107 -81.77594019 336.12358872 C-81.7896518 317.12361513 -81.7842371 298.12368277 -81.77275497 279.12371013 C-81.76282539 261.76621456 -81.77576092 244.40882563 -81.79968917 227.0513465 C-81.82411 209.20117072 -81.83368062 191.35104455 -81.82703644 173.50085241 C-81.82355067 163.49036261 -81.82573369 153.47995477 -81.84328747 143.46947765 C-81.85804686 134.94730671 -81.85859626 126.42527545 -81.84121656 117.90310713 C-81.83273462 113.56080078 -81.83048777 109.21874356 -81.84586811 104.87645054 C-81.85980974 100.89077571 -81.85483212 96.90556121 -81.83562887 92.91991238 C-81.83189732 91.48866769 -81.83470737 90.05738527 -81.84524053 88.62617447 C-82.01102142 64.34744483 -72.69836075 42.17925272 -55.97320271 24.65765858 C-41.24559223 10.60442908 -20.67344812 0.03407483 0 0 Z " fill="#FF3670" transform="translate(81.3286714553833,-0.13422107696533203)"/>
<path d="M0 0 C21.96370599 -0.8131231 43.28832138 1.35399486 64 9 C65.17691406 9.41765625 66.35382813 9.8353125 67.56640625 10.265625 C88.68553541 18.19384177 107.44266562 29.6407237 123.88671875 45.0625 C125.39838639 46.44842819 126.9707669 47.76925923 128.578125 49.04296875 C132.21299719 51.98017998 135.01388534 55.41884604 138 59 C138.648479 59.75603516 138.648479 59.75603516 139.31005859 60.52734375 C151.31419254 74.55761375 159.96184962 90.0688075 167.5390625 106.8515625 C168.69016318 109.80475882 168.69016318 109.80475882 170 111 C170.40089844 110.030625 170.80179688 109.06125 171.21484375 108.0625 C179.62172141 88.0883022 190.41264448 70.12766622 205.53173828 54.51953125 C207.05515529 52.94291877 208.55625107 51.34668354 210.05859375 49.75 C237.22392987 21.30046909 278.03389036 1.69766544 317.45507812 -0.16308594 C324.64066666 -0.32272189 331.81708052 -0.23625036 339 0 C339.26949198 11.82770357 338.72082163 23.29103798 337 35 C336.89236328 35.76618652 336.78472656 36.53237305 336.67382812 37.32177734 C331.55346995 72.0722308 313.6587057 102.62862706 290 128 C289.27554687 128.79019531 288.55109375 129.58039063 287.8046875 130.39453125 C280.86269924 137.67773588 272.98619429 143.53388776 264.94580078 149.54150391 C241.90609988 166.81116177 229.49384966 187.05269023 224.4850769 215.50006104 C222.88636064 227.03515846 223.21407895 238.81929582 223.1875 250.4375 C223.125625 259.863125 223.06375 269.28875 223 279 C187.69 279 152.38 279 116 279 C115.6875 249.5 115.6875 249.5 115.61206055 240.29101562 C115.27584099 211.16203688 110.77555773 186.55239127 91 164 C90.39285156 163.29746094 89.78570312 162.59492188 89.16015625 161.87109375 C83.52177139 155.80843438 76.9267002 151.1958129 70.23999023 146.37963867 C62.95480283 141.08593107 56.43014008 135.28788034 50 129 C49.02933594 128.10474609 49.02933594 128.10474609 48.0390625 127.19140625 C25.89931453 106.35093926 10.0188525 74.54709408 4 45 C3.83371094 44.24976563 3.66742188 43.49953125 3.49609375 42.7265625 C0.33577122 28.36146011 -0.52903471 14.68681738 0 0 Z " fill="#FFFEFE" transform="translate(86,116)"/>
</svg>
