<?xml version="1.0" standalone="no"?>
<!DOCTYPE svg PUBLIC "-//W3C//DTD SVG 20010904//EN"
 "http://www.w3.org/TR/2001/REC-SVG-20010904/DTD/svg10.dtd">
<svg version="1.0" xmlns="http://www.w3.org/2000/svg"
 width="48.000000pt" height="48.000000pt" viewBox="0 0 48.000000 48.000000"
 preserveAspectRatio="xMidYMid meet">

<g transform="translate(0.000000,48.000000) scale(0.100000,-0.100000)"
fill="#000000" stroke="none">
<path d="M169 447 c-57 -21 -97 -54 -126 -105 -26 -44 -28 -55 -32 -194 -3
-127 -1 -148 12 -148 13 0 16 24 19 149 3 147 3 150 33 192 80 114 245 117
325 7 87 -119 16 -285 -133 -313 -23 -5 -37 -13 -37 -22 0 -12 8 -14 38 -8
169 31 251 208 162 349 -53 83 -173 126 -261 93z"/>
<path d="M174 371 c-25 -12 -50 -33 -65 -57 -22 -35 -24 -52 -27 -176 -3 -121
-2 -138 12 -138 14 0 16 17 16 128 0 104 3 133 18 161 20 38 73 71 112 71 61
0 130 -68 130 -128 0 -63 -61 -132 -117 -132 -15 0 -23 -6 -23 -16 0 -14 7
-15 37 -11 147 24 174 237 39 298 -52 23 -80 23 -132 0z"/>
<path d="M204 306 c-51 -22 -62 -95 -21 -134 54 -51 137 -13 137 61 0 35 -27
77 -49 77 -5 0 -15 2 -23 5 -7 2 -27 -2 -44 -9z"/>
</g>
</svg>
