<?xml version="1.0" encoding="UTF-8"?>
<svg version="1.1" xmlns="http://www.w3.org/2000/svg" width="200" height="200">
<path d="M0 0 C66 0 132 0 200 0 C200 66 200 132 200 200 C134 200 68 200 0 200 C0 134 0 68 0 0 Z " fill="#454545" transform="translate(0,0)"/>
<path d="M0 0 C-3.33333333 8.33333333 -6.66666667 16.66666667 -10 25 C-7.11914062 25.14648438 -7.11914062 25.14648438 -4.23828125 25.29296875 C3.31297898 27.67827085 7.29852816 37.50782857 11 44 C11.37688965 44.65033203 11.7537793 45.30066406 12.14208984 45.97070312 C16.98661286 54.44707688 21.16128853 61.99665908 19 72 C15.10102999 85.83412324 8.45994275 107.68739124 -4.453125 115.48046875 C-10.07072049 118.41245938 -14.62832984 120.17115368 -21 119.9921875 C-21.97066406 119.97542969 -22.94132812 119.95867187 -23.94140625 119.94140625 C-25.94942095 119.89780951 -27.95727737 119.84599159 -29.96484375 119.78515625 C-36.38971164 119.69228694 -41.77527179 120.60353158 -47.95507812 122.30126953 C-53.19799625 123.50438304 -58.39078097 123.53129354 -63.75 123.5 C-64.88163574 123.49500488 -66.01327148 123.49000977 -67.17919922 123.48486328 C-79.3987447 123.23206915 -92.08481427 121.18460068 -101 112 C-103.63051651 108.89120776 -103.98947028 107.58966414 -104.0625 103.5 C-102.64999663 98.84704772 -100.94713123 97.73882575 -97 95 C-96.01 94.505 -96.01 94.505 -95 94 C-96.21236328 93.97873047 -96.21236328 93.97873047 -97.44921875 93.95703125 C-106.24227587 93.56457876 -106.24227587 93.56457876 -110.1875 90.625 C-112.93080192 86.65194204 -113.52665677 83.14687169 -113.47265625 78.41796875 C-112.57358682 73.81859706 -109.52797806 70.90138737 -106 68 C-103.66027632 66.65398136 -101.58431184 65.84385693 -99 65 C-99.67546875 64.79246094 -100.3509375 64.58492188 -101.046875 64.37109375 C-109.24851507 61.53844639 -109.24851507 61.53844639 -111.625 57.6875 C-113.68476068 52.16359636 -113.74547591 48.20776836 -111.4375 42.8125 C-109.13406479 38.52993994 -106.34865643 37.0070722 -102 35 C-102 34.01 -102 33.02 -102 32 C-102.763125 31.731875 -103.52625 31.46375 -104.3125 31.1875 C-106.91752101 30.0364442 -108.24363005 29.19546244 -110 27 C-111.51910761 22.44267716 -111.9653845 18.30111047 -110.09375 13.83984375 C-107.46086575 9.32512237 -104.75065753 6.37532877 -100 4 C-97.87002149 3.44266282 -95.73782698 3.02487566 -93.57421875 2.6171875 C-90.64376062 1.91458904 -88.03171294 0.84624718 -85.25 -0.3125 C-57.62998032 -11.02881249 -27.42871606 -11.65354025 0 0 Z " fill="#F58E22" transform="translate(149,43)"/>
<path d="M0 0 C4.5418509 2.61035203 6.67606488 6.80418208 9.1953125 11.26171875 C9.80753662 12.32422852 9.80753662 12.32422852 10.43212891 13.40820312 C23.7507446 36.55503868 23.7507446 36.55503868 20.62841797 48.41503906 C9.99460641 82.34781367 9.99460641 82.34781367 -2.2578125 89.7421875 C-7.54655022 92.50253745 -12.1218708 94.4023103 -18.1328125 94.359375 C-18.93203125 94.35615234 -19.73125 94.35292969 -20.5546875 94.34960938 C-21.3796875 94.34123047 -22.2046875 94.33285156 -23.0546875 94.32421875 C-23.89515625 94.31970703 -24.735625 94.31519531 -25.6015625 94.31054688 C-27.66930151 94.29879836 -29.73700374 94.28086397 -31.8046875 94.26171875 C-31.8046875 93.60171875 -31.8046875 92.94171875 -31.8046875 92.26171875 C-31.23435791 92.0100293 -30.66402832 91.75833984 -30.07641602 91.49902344 C-27.49963716 90.35168511 -24.93357885 89.18209594 -22.3671875 88.01171875 C-21.46935547 87.61597656 -20.57152344 87.22023438 -19.64648438 86.8125 C-18.79248047 86.41933594 -17.93847656 86.02617187 -17.05859375 85.62109375 C-16.26783447 85.26499023 -15.4770752 84.90888672 -14.66235352 84.54199219 C-12.67090903 83.41081047 -12.67090903 83.41081047 -11.97875977 81.36499023 C-11.78567996 79.03205541 -12.07748691 77.48232422 -12.765625 75.25 C-12.98992187 74.49138672 -13.21421875 73.73277344 -13.4453125 72.95117188 C-13.68765625 72.16677734 -13.93 71.38238281 -14.1796875 70.57421875 C-17.00397648 61.36424344 -17.97675029 52.81546074 -17.8671875 43.19921875 C-17.86267578 42.42900391 -17.85816406 41.65878906 -17.85351562 40.86523438 C-17.84191393 38.99736095 -17.82398749 37.12952849 -17.8046875 35.26171875 C-18.31257813 35.52726562 -18.82046875 35.7928125 -19.34375 36.06640625 C-25.83114923 39.39514668 -31.33003452 41.92909848 -38.8046875 41.26171875 C-42.86371417 39.70055465 -45.86568161 38.24745309 -47.8046875 34.26171875 C-48.78218386 27.96229779 -47.28834659 24.26554561 -43.84375 18.984375 C-32.58397685 3.94977369 -19.90431195 -7.07211084 0 0 Z " fill="#F7DFC9" transform="translate(146.8046875,68.73828125)"/>
<path d="M0 0 C2.5625 2.25 2.5625 2.25 5 5 C4.8125 6.8125 4.8125 6.8125 4 9 C3.32645158 14.97482327 3.32645158 14.97482327 6.3125 19.9375 C9.75530157 22.57965004 12.50881775 23.33379216 16.828125 23.296875 C21.43255976 22.66749183 25.70414328 20.70329351 30 19 C30.99 18.67 31.98 18.34 33 18 C33.03440186 18.69335449 33.06880371 19.38670898 33.10424805 20.10107422 C33.77006125 32.58945901 34.46862413 44.62603205 38.41088867 56.56591797 C39.25569033 59.13856756 39.98446297 61.50799397 40.0703125 64.2265625 C38.25800196 67.22944201 35.22607747 68.47162705 32.1875 70 C31.51114502 70.34885254 30.83479004 70.69770508 30.13793945 71.05712891 C11.23123155 80.57164442 -13.04061834 84.27631904 -33.5 77.6875 C-39.64018265 75.53972603 -39.64018265 75.53972603 -42 72 C-40.40671875 71.65388672 -40.40671875 71.65388672 -38.78125 71.30078125 C-31.08779242 69.55524506 -24.29710068 67.98900731 -18 63 C-17.40445313 62.5978125 -16.80890625 62.195625 -16.1953125 61.78125 C-14.25853856 60.46330106 -14.25853856 60.46330106 -12 58 C-11.49734308 54.78839304 -11.49734308 54.78839304 -12 52 C-17.5439852 49.19487601 -21.77270879 48.6064787 -27.9375 48.8125 C-28.71673828 48.82603516 -29.49597656 48.83957031 -30.29882812 48.85351562 C-32.19952404 48.88849776 -34.09985834 48.94229041 -36 49 C-34.47060834 44.35064935 -34.47060834 44.35064935 -32.40625 42.8125 C-31.7771875 42.544375 -31.148125 42.27625 -30.5 42 C-29.79617187 41.6803125 -29.09234375 41.360625 -28.3671875 41.03125 C-27.58601563 40.6909375 -26.80484375 40.350625 -26 40 C-24.20130978 39.18193681 -22.40961148 38.34833705 -20.625 37.5 C-19.37589844 36.92765625 -19.37589844 36.92765625 -18.1015625 36.34375 C-15.71213285 34.81593624 -15.007031 33.61164083 -14 31 C-15.010625 31.33 -16.02125 31.66 -17.0625 32 C-20.7761357 33.05672561 -24.12827836 33.30366444 -28 33 C-30 31 -30 31 -30.4375 27.0625 C-30.37109375 24.90234375 -30.37109375 24.90234375 -30 23 C-26.45021083 19.67207265 -21.64417846 19.02329356 -17 18 C-24.36259293 17.77575859 -30.87049629 18.09879901 -38 20 C-38.33 19.01 -38.66 18.02 -39 17 C-38.23816406 16.91363281 -37.47632813 16.82726562 -36.69140625 16.73828125 C-29.48394726 15.75749095 -24.07173078 14.01715521 -18 10 C-16.66079162 11.11799986 -15.32877444 12.24461897 -14 13.375 C-13.2575 14.00148438 -12.515 14.62796875 -11.75 15.2734375 C-11.1725 15.84320313 -10.595 16.41296875 -10 17 C-10 17.66 -10 18.32 -10 19 C-9.34 19 -8.68 19 -8 19 C-7.76216797 18.19949219 -7.76216797 18.19949219 -7.51953125 17.3828125 C-5.59946085 11.25131697 -2.99765643 5.67540486 0 0 Z " fill="#F58E21" transform="translate(96,86)"/>
<path d="M0 0 C1.56911133 -0.01063477 1.56911133 -0.01063477 3.16992188 -0.02148438 C16.71418528 0.08918528 16.71418528 0.08918528 21.0625 4.4375 C21.57067066 9.40257722 21.8753309 13.90937791 19.5 18.375 C12.60577544 24.20857463 6.85970714 25.58412012 -1.9375 25.4375 C-1.6075 26.0975 -1.2775 26.7575 -0.9375 27.4375 C0.3 27.1075 1.5375 26.7775 2.8125 26.4375 C8.56022546 25.13578227 14.1998892 25.25894333 20.0625 25.4375 C20.5575 26.4275 20.5575 26.4275 21.0625 27.4375 C20.29164062 27.64246094 19.52078125 27.84742187 18.7265625 28.05859375 C17.72367188 28.32800781 16.72078125 28.59742187 15.6875 28.875 C14.68976563 29.14183594 13.69203125 29.40867187 12.6640625 29.68359375 C10.10832299 30.33934356 10.10832299 30.33934356 8.0625 31.4375 C8.041875 32.736875 8.02125 34.03625 8 35.375 C7.98839844 36.10589844 7.97679688 36.83679688 7.96484375 37.58984375 C7.85688816 39.45482141 7.85688816 39.45482141 9.0625 40.4375 C14.48980132 40.76978375 18.89099117 39.8891516 24.0625 38.4375 C23.74436986 41.40671463 23.10750735 42.39437477 20.9140625 44.49609375 C17.85438458 46.57918954 14.83455663 48.03575145 11.4375 49.5 C5.09896677 52.16780867 5.09896677 52.16780867 1.0625 57.4375 C1.59230469 57.27765625 2.12210938 57.1178125 2.66796875 56.953125 C10.31148686 55.30721245 18.22911778 55.55489647 25.0625 59.4375 C26.0625 60.4375 26.0625 60.4375 26.42578125 63.2109375 C26.0625 66.4375 26.0625 66.4375 24.04296875 68.8515625 C17.66842217 73.89770707 11.88737414 77.21692761 4.0625 79.4375 C2.5775 79.9325 2.5775 79.9325 1.0625 80.4375 C-6.07835603 81.12855058 -6.07835603 81.12855058 -9.8125 78.125 C-13.9375 72.90808824 -13.9375 72.90808824 -13.9375 69.0625 C-12.61280364 64.26047568 -10.96921955 63.23501969 -6.9375 60.4375 C-5.9475 59.9425 -5.9475 59.9425 -4.9375 59.4375 C-5.74574219 59.42332031 -6.55398437 59.40914062 -7.38671875 59.39453125 C-16.17977587 59.00207876 -16.17977587 59.00207876 -20.125 56.0625 C-22.86830192 52.08944204 -23.46415677 48.58437169 -23.41015625 43.85546875 C-22.51108682 39.25609706 -19.46547806 36.33888737 -15.9375 33.4375 C-13.59777632 32.09148136 -11.52181184 31.28135693 -8.9375 30.4375 C-9.95070313 30.12619141 -9.95070313 30.12619141 -10.984375 29.80859375 C-19.18601507 26.97594639 -19.18601507 26.97594639 -21.5625 23.125 C-23.62226068 17.60109636 -23.68297591 13.64526836 -21.375 8.25 C-19.81387848 4.84328592 -17.45036701 2.98461967 -14.15600586 1.22485352 C-9.57461094 -0.40109549 -4.80314998 -0.09140433 0 0 Z " fill="#F5DDC6" transform="translate(58.9375,77.5625)"/>
<path d="M0 0 C-1.28881244 3.25113908 -2.58154762 6.50070441 -3.875 9.75 C-4.23980469 10.67039062 -4.60460937 11.59078125 -4.98046875 12.5390625 C-5.51220703 13.87324219 -5.51220703 13.87324219 -6.0546875 15.234375 C-6.37937012 16.05131836 -6.70405273 16.86826172 -7.03857422 17.70996094 C-7.35584473 18.46567383 -7.67311523 19.22138672 -8 20 C-8.29841797 20.74572266 -8.59683594 21.49144531 -8.90429688 22.25976562 C-9.26587891 22.83404297 -9.62746094 23.40832031 -10 24 C-12.66482841 24.46709352 -14.95070966 24.69572473 -17.625 24.75 C-18.33140625 24.77964844 -19.0378125 24.80929688 -19.765625 24.83984375 C-21.50980047 24.91055357 -23.25490827 24.95754035 -25 25 C-23.8905928 21.51329166 -22.73662334 18.22515763 -21 15 C-34.98482316 13.73685468 -48.06082975 14.06846575 -61.95751953 15.76513672 C-64.65428773 16.07523605 -67.35659365 16.28647798 -70.0625 16.5 C-72.0115625 16.7475 -72.0115625 16.7475 -74 17 C-74.33 17.66 -74.66 18.32 -75 19 C-75.10248047 18.12214844 -75.10248047 18.12214844 -75.20703125 17.2265625 C-76.83178568 12.66444414 -82.01749486 10.40774356 -86 8 C-90.57574094 5.98667399 -95.0644798 5.51057106 -100 5 C-100 4.67 -100 4.34 -100 4 C-98.783125 3.773125 -97.56625 3.54625 -96.3125 3.3125 C-92.42440996 2.45916339 -88.92437804 1.21090576 -85.25 -0.3125 C-57.62998032 -11.02881249 -27.42871606 -11.65354025 0 0 Z " fill="#F68E20" transform="translate(149,43)"/>
<path d="M0 0 C3.79419856 3.34331846 5.84927225 7.01151237 8.125 11.4375 C8.47175781 12.09298828 8.81851563 12.74847656 9.17578125 13.42382812 C13.51724505 21.71585764 15.92222275 28.69853375 13.43310547 38.15332031 C9.83674388 49.62940549 4.62745848 60.40283793 -1 71 C-1.66 71 -2.32 71 -3 71 C-3.35191406 69.90042969 -3.70382813 68.80085938 -4.06640625 67.66796875 C-8.07972407 55.50397731 -13.16772431 45.44848097 -22 36 C-22.66 35.67 -23.32 35.34 -24 35 C-24.3125 32.3125 -24.3125 32.3125 -24 29 C-22.39913487 27.27003284 -20.71938714 25.61222313 -19 24 C-12.52047659 17.41672876 -7.16635752 11.47265255 -3.12109375 3.08203125 C-2 1 -2 1 0 0 Z " fill="#F7DCC3" transform="translate(154,79)"/>
<path d="M0 0 C9.91463347 1.1633633 9.91463347 1.1633633 14 4.3125 C15.85383713 6.80359364 17.51866939 9.27123309 19 12 C18.4225 12.495 17.845 12.99 17.25 13.5 C15.24479285 15.72800794 14.37905367 17.1560059 13.1875 19.8125 C11.35100331 23.69272453 9.06086777 26.15473216 5.94140625 29.05859375 C2.86899681 32.13100319 0.32170072 35.60145151 -2.30078125 39.05859375 C-2.86152344 39.69925781 -3.42226562 40.33992188 -4 41 C-4.66 41 -5.32 41 -6 41 C-6 42.98 -6 44.96 -6 47 C-5.41992188 47.23976562 -4.83984375 47.47953125 -4.2421875 47.7265625 C6.43413655 53.79011937 12.45375072 69.97676413 15.61328125 81.1484375 C16 84 16 84 14.375 87.5 C8.4765051 92.67878465 0.52626006 96.153759 -7.328125 96.09765625 C-8.12734375 96.09443359 -8.9265625 96.09121094 -9.75 96.08789062 C-10.575 96.07951172 -11.4 96.07113281 -12.25 96.0625 C-13.09046875 96.05798828 -13.9309375 96.05347656 -14.796875 96.04882812 C-16.86461401 96.03707961 -18.93231624 96.01914522 -21 96 C-21 95.34 -21 94.68 -21 94 C-20.42967041 93.74831055 -19.85934082 93.49662109 -19.27172852 93.23730469 C-16.69494966 92.08996636 -14.12889135 90.92037719 -11.5625 89.75 C-10.66466797 89.35425781 -9.76683594 88.95851563 -8.84179688 88.55078125 C-7.98779297 88.15761719 -7.13378906 87.76445312 -6.25390625 87.359375 C-5.46314697 87.00327148 -4.6723877 86.64716797 -3.85766602 86.28027344 C-1.85843277 85.14699587 -1.85843277 85.14699587 -1.17626953 83.0637207 C-0.94499847 80.35605546 -1.74433271 78.16783825 -2.59057617 75.61791992 C-5.51839616 66.77505205 -6.85990693 57.95120308 -7.6875 48.6875 C-7.81358643 47.5130835 -7.93967285 46.33866699 -8.06958008 45.12866211 C-8.68552061 36.98442835 -8.68552061 36.98442835 -6.77490234 34.24072266 C-5.19140625 32.95703125 -5.19140625 32.95703125 -2 31 C-0.03815369 28.4857892 1.47476103 25.79723071 3 23 C3.433125 22.21625 3.86625 21.4325 4.3125 20.625 C5.55731015 15.87208852 5.93437952 10.46376486 4.171875 5.81640625 C2.97398575 3.69488686 2.97398575 3.69488686 0 2 C0 1.34 0 0.68 0 0 Z " fill="#E9CDB0" transform="translate(136,67)"/>
<path d="M0 0 C-1.01620005 3.04860014 -1.77391571 3.86666922 -4 6 C-4.33 6.66 -4.66 7.32 -5 8 C-4.47019531 7.84015625 -3.94039062 7.6803125 -3.39453125 7.515625 C4.24898686 5.86971245 12.16661778 6.11739647 19 10 C20 11 20 11 20.36328125 13.7734375 C20 17 20 17 17.98046875 19.4140625 C11.60592217 24.46020707 5.82487414 27.77942761 -2 30 C-2.99 30.33 -3.98 30.66 -5 31 C-12.14085603 31.69105058 -12.14085603 31.69105058 -15.875 28.6875 C-20 23.47058824 -20 23.47058824 -20 19.625 C-18.67530364 14.82297568 -17.03171955 13.79751969 -13 11 C-12.34 10.67 -11.68 10.34 -11 10 C-12.24716797 9.94392578 -12.24716797 9.94392578 -13.51953125 9.88671875 C-14.60621094 9.82097656 -15.69289063 9.75523437 -16.8125 9.6875 C-17.89144531 9.62949219 -18.97039063 9.57148438 -20.08203125 9.51171875 C-23.17497517 8.96931493 -24.13022903 8.44710376 -26 6 C-24.30517717 3.92977668 -23.39774253 3.07735784 -20.73046875 2.55859375 C-19.47169922 2.49865234 -19.47169922 2.49865234 -18.1875 2.4375 C-15.0873014 2.22183401 -12.78817653 1.92939218 -9.8125 0.9375 C-6.43645626 -0.18784791 -3.53460959 -0.14138438 0 0 Z " fill="#F6DEC7" transform="translate(65,127)"/>
<path d="M0 0 C0.495 0.99 0.495 0.99 1 2 C-0.15628906 2.30744141 -0.15628906 2.30744141 -1.3359375 2.62109375 C-2.33882812 2.89050781 -3.34171875 3.15992187 -4.375 3.4375 C-5.37273437 3.70433594 -6.37046875 3.97117187 -7.3984375 4.24609375 C-9.95417701 4.90184356 -9.95417701 4.90184356 -12 6 C-12.020625 7.299375 -12.04125 8.59875 -12.0625 9.9375 C-12.07410156 10.66839844 -12.08570312 11.39929688 -12.09765625 12.15234375 C-12.20561184 14.01732141 -12.20561184 14.01732141 -11 15 C-5.57269868 15.33228375 -1.17150883 14.4516516 4 13 C3.42655063 15.86724686 3.1385485 16.8614515 1 19 C-5.59754243 23.39836162 -10.77284209 25.3654672 -18.73828125 25.01171875 C-21.76151552 24.99605432 -24.14544769 26.02945221 -27 27 C-30.1622077 27.30096631 -33.315729 27.50015887 -36.48828125 27.65625 C-37.31714844 27.7696875 -38.14601563 27.883125 -39 28 C-39.33 28.66 -39.66 29.32 -40 30 C-42.9126646 26.23780823 -43.72500012 22.99904118 -43.5234375 18.33984375 C-42.48054736 13.67796915 -39.70308159 10.8634658 -36 8 C-24.80287563 1.79727643 -12.67911808 -0.60697906 0 0 Z " fill="#F6DEC7" transform="translate(79,103)"/>
<path d="M0 0 C0.33 0 0.66 0 1 0 C1.03440186 0.69335449 1.06880371 1.38670898 1.10424805 2.10107422 C1.77006125 14.58945901 2.46862413 26.62603205 6.41088867 38.56591797 C7.25569033 41.13856756 7.98446297 43.50799397 8.0703125 46.2265625 C6.25803878 49.229381 3.22612007 50.47178993 0.1875 52 C-0.48812988 52.34812744 -1.16375977 52.69625488 -1.85986328 53.05493164 C-10.49799436 57.39840443 -19.25664319 60.68569817 -29 61 C-29.66 60.34 -30.32 59.68 -31 59 C-29.02 58.505 -29.02 58.505 -27 58 C-28.98 57.34 -30.96 56.68 -33 56 C-33 55.34 -33 54.68 -33 54 C-32.2265625 53.64808594 -31.453125 53.29617187 -30.65625 52.93359375 C-21.95319865 48.80826124 -13.4768907 44.51570086 -10 35 C-9.55917502 33.20914852 -9.12201925 31.4173919 -8.6875 29.625 C-7.69194221 25.64809268 -6.6556595 23.3055249 -3.875 20.3125 C0.86552249 14.73886588 -0.01686173 6.94703252 0 0 Z " fill="#DE7824" transform="translate(128,104)"/>
<path d="M0 0 C6.54633769 1.90889913 11.77570474 5.72945891 17 10 C17 13.57251365 16.83859164 15.84789234 14.71484375 18.765625 C9.63705529 23.36353455 4.21925716 23.68853252 -2.36352539 23.68701172 C-6.5555163 23.71225555 -8.94874892 24.01952536 -12 27 C-17.875 22.375 -17.875 22.375 -19 19 C-19.61129744 12.98890853 -18.79261628 9.79555502 -15.484375 4.76171875 C-10.94858546 -0.62154725 -6.71800438 -0.88056317 0 0 Z " fill="#F5DFC8" transform="translate(57,48)"/>
<path d="M0 0 C9.87272465 5.3160825 17.03010216 16.77675184 23 26 C23 26.66 23 27.32 23 28 C19.98017116 28.50682442 16.95937183 29.00563335 13.9375 29.5 C13.08994141 29.64308594 12.24238281 29.78617188 11.36914062 29.93359375 C6.50727611 30.72200421 1.92471814 31.16037074 -3 31 C-1.66529737 26.99589212 0.55999303 26.29333798 4 24 C4.33 23.01 4.66 22.02 5 21 C3.989375 21.33 2.97875 21.66 1.9375 22 C-1.7761357 23.05672561 -5.12827836 23.30366444 -9 23 C-11 21 -11 21 -11.4375 17.0625 C-11.37109375 14.90234375 -11.37109375 14.90234375 -11 13 C-7.45021083 9.67207265 -2.64417846 9.02329356 2 8 C-5.36259293 7.77575859 -11.87049629 8.09879901 -19 10 C-19.33 9.01 -19.66 8.02 -20 7 C-19.2265625 6.91363281 -18.453125 6.82726562 -17.65625 6.73828125 C-10.66306953 5.79489428 -5.61393841 4.32603489 0 0 Z " fill="#C7652A" transform="translate(77,96)"/>
<path d="M0 0 C2.5625 2.25 2.5625 2.25 5 5 C4.8125 6.8125 4.8125 6.8125 4 9 C3.42004233 14.78331623 3.42004233 14.78331623 5.8125 19.875 C10.28364454 22.85576303 14.72960682 23.38158259 20 24 C20.33 24.99 20.66 25.98 21 27 C14.73 29.31 8.46 31.62 2 34 C0.68 32.35 -0.64 30.7 -2 29 C-2.69222656 28.34 -3.38445312 27.68 -4.09765625 27 C-6.3317198 24.72596315 -7.77664647 22.95860675 -9 20 C-8.22314243 15.21131077 -6.27232766 11.25515204 -4 7 C-3.5875 6.21238281 -3.175 5.42476563 -2.75 4.61328125 C-1.88517216 3.04578079 -0.95199639 1.51614239 0 0 Z " fill="#E17926" transform="translate(96,86)"/>
<path d="M0 0 C0.66 0.33 1.32 0.66 2 1 C2.625 4.0625 2.625 4.0625 3 7 C-0.42438778 9.16898609 -3.7536248 10.80486241 -7.5625 12.1875 C-8.49191406 12.53167969 -9.42132813 12.87585938 -10.37890625 13.23046875 C-13 14 -13 14 -17 14 C-15.02 16.97 -15.02 16.97 -13 20 C-14.35129647 20.48720213 -15.70624316 20.96428184 -17.0625 21.4375 C-17.81660156 21.70433594 -18.57070312 21.97117188 -19.34765625 22.24609375 C-24.89170244 23.82194193 -30.50945885 24.144061 -36.24609375 24.31640625 C-36.90207047 24.33718735 -37.55804718 24.35796844 -38.23390198 24.37937927 C-40.30167546 24.44405938 -42.36956101 24.50337466 -44.4375 24.5625 C-45.85092242 24.60576307 -47.26433407 24.64937965 -48.67773438 24.69335938 C-52.11837471 24.79965516 -55.55913692 24.90114472 -59 25 C-57.22558594 20.16601562 -57.22558594 20.16601562 -55.1953125 18.671875 C-54.51210937 18.36765625 -53.82890625 18.0634375 -53.125 17.75 C-52.44695312 17.43546875 -51.76890625 17.1209375 -51.0703125 16.796875 C-49.06295816 16.02423295 -47.09689123 15.47015499 -45 15 C-45 15.66 -45 16.32 -45 17 C-31.22178349 15.22985432 -18.04056335 13.36372862 -5.09765625 8.171875 C-2 7 -2 7 1 7 C0.505 3.535 0.505 3.535 0 0 Z " fill="#C96327" transform="translate(119,110)"/>
<path d="M0 0 C4.11049705 1.7355432 5.80654625 4.23846461 7.8125 8.125 C7.8125 11.68066171 6.01243535 13.49257919 3.8125 16.1875 C-0.04607385 19.67326479 -3.81198495 22.30435902 -9.1875 22.1875 C-12.95880118 20.17613937 -13.97922189 18.82390532 -15.3125 14.75 C-15.1875 11.1875 -15.1875 11.1875 -13.1875 8.625 C-12.1975 7.820625 -11.2075 7.01625 -10.1875 6.1875 C-9.63191406 5.63449219 -9.07632813 5.08148438 -8.50390625 4.51171875 C-4.09565757 0.24092103 -4.09565757 0.24092103 0 0 Z " fill="#A189BE" transform="translate(114.1875,86.8125)"/>
<path d="M0 0 C1 1 1 1 1.1328125 3.46875 C1.13023438 4.4690625 1.12765625 5.469375 1.125 6.5 C1.12886719 8.00046875 1.12886719 8.00046875 1.1328125 9.53125 C1 12 1 12 0 13 C-2.64122284 13.18021767 -5.23146898 13.27801916 -7.875 13.3125 C-8.60847656 13.34150391 -9.34195313 13.37050781 -10.09765625 13.40039062 C-15.50533841 13.46441601 -15.50533841 13.46441601 -17.98046875 11.140625 C-19.25095275 8.47309537 -19.52345284 6.9163801 -19 4 C-16.64210491 1.12951903 -14.15347955 0.74686595 -10.625 0.3125 C-7.07786251 0.02568525 -3.55819034 -0.17790952 0 0 Z " fill="#7969B9" transform="translate(79,81)"/>
<path d="M0 0 C3.5 0.5625 3.5 0.5625 5.9375 2.125 C8.1232026 5.53469606 8.05004566 7.574669 7.5 11.5625 C5.74505919 14.66289543 4.01174333 17.05075667 1.5 19.5625 C-0.875 20 -0.875 20 -3.5 19.5625 C-6.06638215 17.41228793 -7.29103188 15.72976637 -7.88671875 12.40234375 C-8.07706685 8.47067098 -7.74533536 6.04335731 -5.9375 2.5 C-3.5 0.5625 -3.5 0.5625 0 0 Z " fill="#FBCB9E" transform="translate(100.5,62.4375)"/>
<path d="M0 0 C1.49686954 2.80663039 1.45535315 4.75257843 1 7.875 C-2.72904575 12.05153124 -8.4691389 12.77461567 -13.8125 13.125 C-17 12.875 -17 12.875 -19 10.875 C-19.57432922 5.70603698 -19.57432922 5.70603698 -19 2.875 C-14.29242953 -1.17874124 -5.65839159 -3.18284527 0 0 Z " fill="#46469D" transform="translate(85,106.125)"/>
<path d="M0 0 C2.54910223 0.77914255 4.62292077 1.75978475 7 3 C6.40806045 9.27455919 6.40806045 9.27455919 4.875 12 C1.74676372 13.66839268 -0.63005206 12.78632119 -4 12 C-7.44828761 10.79969063 -10.37654809 9.62345191 -13 7 C-13.3125 4.5 -13.3125 4.5 -13 2 C-8.73921052 -0.84052632 -5.00344496 -0.5215071 0 0 Z " fill="#38B9EA" transform="translate(67,55)"/>
<path d="M0 0 C-0.66 1.98 -1.32 3.96 -2 6 C-2.99 5.505 -2.99 5.505 -4 5 C-4.625 2.9375 -4.625 2.9375 -5 1 C-20.80566657 -3.21040969 -20.80566657 -3.21040969 -37 -5 C-38.38251953 -5.05800781 -38.38251953 -5.05800781 -39.79296875 -5.1171875 C-49.6705321 -5.35205691 -59.52967592 -4.15944283 -69.125 -1.8125 C-72.66054671 -1.07117569 -74.6122412 -0.90717458 -78 -2 C-56.50503949 -13.95960209 -21.44235804 -10.6083245 0 0 Z " fill="#DA7626" transform="translate(149,43)"/>
<path d="M0 0 C3.96 0 7.92 0 12 0 C9.42093418 5.15813164 6.31018827 6.7186368 1.0625 8.75 C-2.29508719 9.15698027 -5.61991606 9.05633473 -9 9 C-8.67 9.99 -8.34 10.98 -8 12 C-13.3020922 14.38594149 -16.73581811 13.949697 -22 12 C-24.9375 10.5625 -24.9375 10.5625 -27 9 C-27.33 8.01 -27.66 7.02 -28 6 C-27.06994141 6.01740234 -27.06994141 6.01740234 -26.12109375 6.03515625 C-10.02533521 6.66265972 -10.02533521 6.66265972 5 2 C2.525 1.505 2.525 1.505 0 1 C0 0.67 0 0.34 0 0 Z " fill="#E9CCAF" transform="translate(66,94)"/>
<path d="M0 0 C2 2 2 2 2.375 4.9375 C2 8 2 8 0.25 9.8125 C-4.14840949 12.13388279 -8.02357897 12.35545864 -13 12 C-15.4375 10.5 -15.4375 10.5 -17 9 C-16.25 4.25 -16.25 4.25 -14 2 C-9.57563665 0.59185292 -4.64080134 -0.56252137 0 0 Z " fill="#065E9F" transform="translate(83,136)"/>
<path d="M0 0 C-1 3 -1 3 -2.5625 4.5 C-4.34595268 6.01472806 -4.34595268 6.01472806 -4 9 C-5.32 9 -6.64 9 -8 9 C-8.33 9.99 -8.66 10.98 -9 12 C-10.32 11.67 -11.64 11.34 -13 11 C-12.34 10.67 -11.68 10.34 -11 10 C-12.24716797 9.94392578 -12.24716797 9.94392578 -13.51953125 9.88671875 C-14.60621094 9.82097656 -15.69289063 9.75523437 -16.8125 9.6875 C-17.89144531 9.62949219 -18.97039063 9.57148438 -20.08203125 9.51171875 C-23.17497517 8.96931493 -24.13022903 8.44710376 -26 6 C-24.30517717 3.92977668 -23.39774253 3.07735784 -20.73046875 2.55859375 C-19.47169922 2.49865234 -19.47169922 2.49865234 -18.1875 2.4375 C-15.0873014 2.22183401 -12.78817653 1.92939218 -9.8125 0.9375 C-6.43645626 -0.18784791 -3.53460959 -0.14138438 0 0 Z " fill="#E9CCB0" transform="translate(65,127)"/>
<path d="M0 0 C0.59474121 0.20971436 1.18948242 0.41942871 1.80224609 0.63549805 C2.55224609 2.26049805 2.55224609 2.26049805 2.80224609 4.63549805 C0.21935788 9.69365414 -3.26190976 12.96458671 -8.19775391 15.63549805 C-11.44775391 16.57299805 -11.44775391 16.57299805 -14.19775391 16.63549805 C-15.18775391 15.97549805 -16.17775391 15.31549805 -17.19775391 14.63549805 C-15.58397923 10.24477344 -12.28967048 7.7591862 -8.82275391 4.82299805 C-7.95650391 4.05052734 -7.95650391 4.05052734 -7.07275391 3.26245117 C-2.71823037 -0.45082403 -2.71823037 -0.45082403 0 0 Z " fill="#A994C4" transform="translate(119.19775390625,92.364501953125)"/>
<path d="M0 0 C-0.78224743 4.3972938 -2.17154259 7.94559445 -4 12 C-4.66 12 -5.32 12 -6 12 C-4.88786134 8.50470706 -3.68426809 5.25530808 -2 2 C-15.98482316 0.73685468 -29.06082975 1.06846575 -42.95751953 2.76513672 C-45.65428773 3.07523605 -48.35659365 3.28647798 -51.0625 3.5 C-52.361875 3.665 -53.66125 3.83 -55 4 C-55.33 4.66 -55.66 5.32 -56 6 C-56 5.01 -56 4.02 -56 3 C-37.7703257 -2.905942 -18.76589194 -3.19419437 0 0 Z " fill="#E37C26" transform="translate(130,56)"/>
<path d="M0 0 C1 1 1 1 1 6 C-8.405 6.99 -8.405 6.99 -18 8 C-18.33 6.68 -18.66 5.36 -19 4 C-14.20961486 -0.79038514 -6.37345317 -0.31867266 0 0 Z " fill="#5F53A1" transform="translate(79,81)"/>
<path d="M0 0 C0.66 0.33 1.32 0.66 2 1 C2.625 4.0625 2.625 4.0625 3 7 C-1.32832873 9.89419186 -5.78123836 11.45986984 -10.6875 13.0625 C-11.43966797 13.31837891 -12.19183594 13.57425781 -12.96679688 13.83789062 C-22.41545122 16.96599832 -31.17274295 18.30671256 -41.125 18.125 C-42.08148438 18.11597656 -43.03796875 18.10695312 -44.0234375 18.09765625 C-46.34923525 18.07439827 -48.67447294 18.04172213 -51 18 C-48.8614515 15.8614515 -47.86724686 15.57344937 -45 15 C-45 15.66 -45 16.32 -45 17 C-31.22178349 15.22985432 -18.04056335 13.36372862 -5.09765625 8.171875 C-2 7 -2 7 1 7 C0.505 3.535 0.505 3.535 0 0 Z " fill="#E07827" transform="translate(119,110)"/>
<path d="M0 0 C0.33 0 0.66 0 1 0 C1.25 2.8125 1.25 2.8125 1 6 C-1.93392209 9.28599275 -5.80103051 10.07480333 -10 11 C-12.33215844 11.07403678 -14.66860788 11.09515886 -17 11 C-17.66 9.68 -18.32 8.36 -19 7 C-16.2092793 6.16338138 -13.41751988 5.33057263 -10.625 4.5 C-9.8309375 4.26152344 -9.036875 4.02304688 -8.21875 3.77734375 C-7.45820312 3.55175781 -6.69765625 3.32617188 -5.9140625 3.09375 C-5.2123291 2.88427734 -4.5105957 2.67480469 -3.78759766 2.45898438 C-2 2 -2 2 0 2 C0 1.34 0 0.68 0 0 Z " fill="#6060BF" transform="translate(85,108)"/>
<path d="M0 0 C2.64 0 5.28 0 8 0 C8.33 0.66 8.66 1.32 9 2 C18.06050409 4.62641519 27.25514487 5.38518277 36.63671875 5.69140625 C39.79152471 5.98087161 41.30151753 6.52137442 44 8 C14.24808863 9.10684194 14.24808863 9.10684194 2 3 C1.34 2.01 0.68 1.02 0 0 Z " fill="#DB7828" transform="translate(54,158)"/>
<path d="M0 0 C0.33 0.66 0.66 1.32 1 2 C2.82822197 2.65373359 2.82822197 2.65373359 5.03515625 3.0703125 C6.24848633 3.33134766 6.24848633 3.33134766 7.48632812 3.59765625 C8.7615332 3.85869141 8.7615332 3.85869141 10.0625 4.125 C10.91650391 4.30675781 11.77050781 4.48851562 12.65039062 4.67578125 C14.76533296 5.12476342 16.88247647 5.56335351 19 6 C18.14379883 7.94604492 18.14379883 7.94604492 17 10 C13.05912369 11.47866496 10.59710501 10.8078377 6.8125 9.1875 C5.95269531 8.83042969 5.09289063 8.47335938 4.20703125 8.10546875 C2 7 2 7 0 5 C-0.125 2.375 -0.125 2.375 0 0 Z " fill="#48CDEF" transform="translate(54,57)"/>
<path d="M0 0 C-0.0625 2.3125 -0.0625 2.3125 -1 5 C-5.68307463 7.71618329 -9.52238693 8.72345833 -15 8 C-17.20703125 5.97265625 -17.20703125 5.97265625 -19 4 C-16.20895657 3.3306277 -13.41722977 2.66438908 -10.625 2 C-9.43390625 1.71382812 -9.43390625 1.71382812 -8.21875 1.421875 C-7.45820312 1.24140625 -6.69765625 1.0609375 -5.9140625 0.875 C-4.8614624 0.62363281 -4.8614624 0.62363281 -3.78759766 0.3671875 C-2 0 -2 0 0 0 Z " fill="#0F7BBB" transform="translate(85,140)"/>
<path d="M0 0 C0.33 0.99 0.66 1.98 1 3 C-3.84041181 7.46807244 -9.47461002 11.95497124 -16.35546875 12.0234375 C-18.5625 11.75 -18.5625 11.75 -22 11 C-19.1398269 8.1398269 -15.60815162 7.22254523 -11.875 5.875 C-11.12089844 5.59785156 -10.36679688 5.32070312 -9.58984375 5.03515625 C-7.72836879 4.35183 -5.86441398 3.67526611 -4 3 C-4 2.34 -4 1.68 -4 1 C-2.68 0.67 -1.36 0.34 0 0 Z " fill="#EFD5BD" transform="translate(82,116)"/>
<path d="M0 0 C3.96 0 7.92 0 12 0 C9.76726767 4.46546466 7.56074643 6.28197125 3 8 C0.13264854 8.42364472 -2.06713878 8.29825707 -5 8 C-5.66 7.34 -6.32 6.68 -7 6 C-6.30132812 5.79503906 -5.60265625 5.59007813 -4.8828125 5.37890625 C-3.97273438 5.10949219 -3.06265625 4.84007813 -2.125 4.5625 C-1.22007813 4.29566406 -0.31515625 4.02882813 0.6171875 3.75390625 C2.98275381 3.07386174 2.98275381 3.07386174 5 2 C3.35 1.67 1.7 1.34 0 1 C0 0.67 0 0.34 0 0 Z " fill="#ECD2BB" transform="translate(66,94)"/>
<path d="M0 0 C0.33 0.99 0.66 1.98 1 3 C-7.19598133 8.46398756 -16.10224963 13.75163509 -26 15 C-26 14.01 -26 13.02 -26 12 C-24.35 12.33 -22.7 12.66 -21 13 C-20.67 12.01 -20.34 11.02 -20 10 C-18.68 10.33 -17.36 10.66 -16 11 C-15.67 10.01 -15.34 9.02 -15 8 C-10.66821752 5.79164031 -6.85745385 4.59237242 -2 4 C-2 3.34 -2 2.68 -2 2 C-1.34 2 -0.68 2 0 2 C0 1.34 0 0.68 0 0 Z " fill="#D1702D" transform="translate(135,148)"/>
<path d="M0 0 C1.093125 0.226875 2.18625 0.45375 3.3125 0.6875 C3.3125 1.3475 3.3125 2.0075 3.3125 2.6875 C5.2925 2.6875 7.2725 2.6875 9.3125 2.6875 C9.3125 3.0175 9.3125 3.3475 9.3125 3.6875 C8.219375 3.97625 7.12625 4.265 6 4.5625 C2.27236155 5.50643204 2.27236155 5.50643204 -0.6875 7.6875 C-2.6675 6.0375 -4.6475 4.3875 -6.6875 2.6875 C-4.58035839 -0.41123767 -3.86755884 -0.32775922 0 0 Z " fill="#E7C6A6" transform="translate(45.6875,67.3125)"/>
<path d="M0 0 C0.41894531 0.80824219 0.83789062 1.61648437 1.26953125 2.44921875 C2.79970529 5.33051753 2.79970529 5.33051753 6.13671875 5.70703125 C7.30847656 5.74183594 8.48023438 5.77664062 9.6875 5.8125 C10.86699219 5.86019531 12.04648438 5.90789062 13.26171875 5.95703125 C14.61716797 5.97830078 14.61716797 5.97830078 16 6 C16 6.33 16 6.66 16 7 C9.4 7 2.8 7 -4 7 C-4.66 5.68 -5.32 4.36 -6 3 C-3.375 0 -3.375 0 0 0 Z " fill="#E38431" transform="translate(52,71)"/>
<path d="M0 0 C1.27617188 0.02320313 2.55234375 0.04640625 3.8671875 0.0703125 C5.78917969 0.09738281 5.78917969 0.09738281 7.75 0.125 C9.23113281 0.15980469 9.23113281 0.15980469 10.7421875 0.1953125 C11.0721875 0.8553125 11.4021875 1.5153125 11.7421875 2.1953125 C6.5131538 3.93832373 2.26465065 4.56971678 -3.2578125 4.1953125 C-3.9178125 3.5353125 -4.5778125 2.8753125 -5.2578125 2.1953125 C-3.2578125 0.1953125 -3.2578125 0.1953125 0 0 Z " fill="#E9CCAF" transform="translate(55.2578125,153.8046875)"/>
<path d="M0 0 C1 2 1 2 0.44140625 3.9453125 C0.15136719 4.66460937 -0.13867188 5.38390625 -0.4375 6.125 C-0.72496094 6.84945312 -1.01242188 7.57390625 -1.30859375 8.3203125 C-1.53675781 8.87460938 -1.76492187 9.42890625 -2 10 C-2.66 10 -3.32 10 -4 10 C-4 14.29 -4 18.58 -4 23 C-4.33 23 -4.66 23 -5 23 C-5.33081223 20.10388933 -5.61539756 17.2151238 -5.875 14.3125 C-5.97296875 13.49587891 -6.0709375 12.67925781 -6.171875 11.83789062 C-6.65763091 5.83880509 -6.65763091 5.83880509 -4.66894531 3.30224609 C-3.0078125 1.91796875 -3.0078125 1.91796875 0 0 Z " fill="#E2B894" transform="translate(134,98)"/>
<path d="M0 0 C0.66 0 1.32 0 2 0 C0.06375702 6.20477864 -2.25609141 12.10825719 -5 18 C-5.66 18 -6.32 18 -7 18 C-6.34422814 13.97594538 -5.08843632 10.49944851 -3.5 6.75 C-3.0565625 5.69296875 -2.613125 4.6359375 -2.15625 3.546875 C-1 1 -1 1 0 0 Z " fill="#DE7725" transform="translate(144,49)"/>
<path d="M0 0 C-6.16567994 5.02388736 -11.28744954 5.26956487 -19 5 C-19 4.67 -19 4.34 -19 4 C-18.14728516 3.83564453 -18.14728516 3.83564453 -17.27734375 3.66796875 C-13.36183243 2.8639489 -9.75716726 2.0080299 -6.125 0.3125 C-3 -1 -3 -1 0 0 Z " fill="#CF7833" transform="translate(68,43)"/>
<path d="M0 0 C0.99 0.33 1.98 0.66 3 1 C2.360625 1.721875 1.72125 2.44375 1.0625 3.1875 C-0.98673535 5.98191184 -1.61332946 7.61663274 -2 11 C-2.99 11 -3.98 11 -5 11 C-4.50769231 4.6 -4.50769231 4.6 -1.9375 1.5625 C-0.9784375 0.7890625 -0.9784375 0.7890625 0 0 Z " fill="#ECD3BB" transform="translate(50,139)"/>
<path d="M0 0 C-0.66 1.65 -1.32 3.3 -2 5 C1.3 5 4.6 5 8 5 C8 5.33 8 5.66 8 6 C3.05 6.33 -1.9 6.66 -7 7 C-4.2 0 -4.2 0 0 0 Z " fill="#E88D37" transform="translate(67,128)"/>
<path d="M0 0 C5.94 0.33 11.88 0.66 18 1 C16 3 16 3 13.828125 3.23046875 C9.12000279 3.15200005 4.62894997 2.97451578 0 2 C0 1.34 0 0.68 0 0 Z " fill="#F0D6BE" transform="translate(49,68)"/>
<path d="M0 0 C0 0.33 0 0.66 0 1 C-1.02480469 1.13277344 -2.04960938 1.26554687 -3.10546875 1.40234375 C-4.4661574 1.58064088 -5.82683385 1.75903123 -7.1875 1.9375 C-7.86103516 2.02451172 -8.53457031 2.11152344 -9.22851562 2.20117188 C-12.85081166 2.67825477 -16.42803585 3.23012035 -20 4 C-20.33 3.01 -20.66 2.02 -21 1 C-13.65485589 -0.50382815 -7.4189942 -1.23649903 0 0 Z " fill="#E58A38" transform="translate(78,102)"/>
<path d="M0 0 C-6.56053812 4.92466368 -6.56053812 4.92466368 -10.08984375 5.109375 C-12 4.8125 -12 4.8125 -15 4 C-12.38668086 2.58445213 -9.69281871 1.41868688 -6.9375 0.3125 C-6.26589844 0.04050781 -5.59429687 -0.23148438 -4.90234375 -0.51171875 C-3 -1 -3 -1 0 0 Z " fill="#EED5BC" transform="translate(78,150)"/>
<path d="M0 0 C0.66 0.99 1.32 1.98 2 3 C-2.46236469 4.80619523 -5.31034294 5.11658501 -10 4 C-10 3.67 -10 3.34 -10 3 C-9.04287109 2.80083984 -9.04287109 2.80083984 -8.06640625 2.59765625 C-7.24011719 2.42105469 -6.41382813 2.24445313 -5.5625 2.0625 C-4.73878906 1.88847656 -3.91507813 1.71445313 -3.06640625 1.53515625 C-1.02338796 1.19247006 -1.02338796 1.19247006 0 0 Z " fill="#D5B9A0" transform="translate(56,103)"/>
<path d="M0 0 C2.31 0.33 4.62 0.66 7 1 C3.81237635 3.12508244 1.73487777 3.5020163 -2 4 C-1.34 2.68 -0.68 1.36 0 0 Z " fill="#D8D0C4" transform="translate(74,134)"/>
<path d="M0 0 C-0.66 1.65 -1.32 3.3 -2 5 C-3.32 5 -4.64 5 -6 5 C-4.87312259 1.61936778 -3.78825335 0 0 0 Z " fill="#EF8D2B" transform="translate(67,128)"/>
<path d="M0 0 C0 0.66 0 1.32 0 2 C-2.31 2 -4.62 2 -7 2 C-7 1.34 -7 0.68 -7 0 C-3.86650268 -1.04449911 -3.01031744 -0.93423645 0 0 Z " fill="#EDCDB2" transform="translate(115,108)"/>
<path d="M0 0 C0 3.51716303 -0.82445585 4.37121748 -3 7 C-3.66 5.68 -4.32 4.36 -5 3 C-3.35 2.01 -1.7 1.02 0 0 Z " fill="#CD7E40" transform="translate(40,54)"/>
<path d="M0 0 C0.33 0.66 0.66 1.32 1 2 C-2.96 1.67 -6.92 1.34 -11 1 C-11 0.67 -11 0.34 -11 0 C-3.19354839 -1.35111663 -3.19354839 -1.35111663 0 0 Z " fill="#DADBCE" transform="translate(69,54)"/>
</svg>
